<svg width="1081" height="150" viewBox="0 0 1081 150" fill="none" xmlns="http://www.w3.org/2000/svg">
<path d="M111.811 2.08333C113.055 2.08333 114.13 2.63889 115.035 3.75C115.94 4.86111 116.392 6.18056 116.392 7.70833V142.292C116.392 143.819 115.94 145.139 115.035 146.25C114.13 147.361 113.055 147.917 111.811 147.917H84.4947C81.78 147.917 79.5177 146.458 77.7079 143.542L40.7203 85.625V142.292C40.7203 143.819 40.2679 145.139 39.363 146.25C38.4581 147.361 37.3835 147.917 36.1393 147.917H4.58104C3.3368 147.917 2.26224 147.361 1.35734 146.25C0.452448 145.139 0 143.819 0 142.292V7.70833C0 6.18056 0.452448 4.86111 1.35734 3.75C2.26224 2.63889 3.3368 2.08333 4.58104 2.08333H32.0673C34.7819 2.08333 36.9876 3.47222 38.6843 6.25001L75.6719 68.9583V7.70833C75.6719 6.18056 76.1244 4.86111 77.0293 3.75C77.9342 2.63889 79.0087 2.08333 80.253 2.08333H111.811Z" fill="#123E7D"/>
<path d="M259.186 87.7083C259.186 108.958 253.418 124.653 241.88 134.792C230.456 144.931 215.186 150 196.07 150C176.954 150 161.627 144.931 150.09 134.792C138.666 124.653 132.953 108.819 132.953 87.2917V62.7083C132.953 48.5417 135.668 36.8056 141.098 27.5C146.64 18.0556 154.162 11.1111 163.663 6.66667C173.165 2.22222 183.967 0 196.07 0C208.173 0 218.919 2.22222 228.307 6.66667C237.808 11.1111 245.33 17.9861 250.873 27.2917C256.415 36.5972 259.186 48.2639 259.186 62.2917V87.7083ZM178.764 91.6667C178.764 97.3611 180.291 101.736 183.345 104.792C186.512 107.847 190.754 109.375 196.07 109.375C201.386 109.375 205.571 107.847 208.625 104.792C211.793 101.597 213.376 97.1528 213.376 91.4583V58.5417C213.376 52.8472 211.793 48.4722 208.625 45.4167C205.571 42.2222 201.386 40.625 196.07 40.625C190.754 40.625 186.512 42.1528 183.345 45.2083C180.291 48.2639 178.764 52.6389 178.764 58.3333V91.6667Z" fill="#123E7D"/>
<path d="M391.97 2.08333C393.214 2.08333 394.289 2.63889 395.194 3.75C396.099 4.86111 396.551 6.18056 396.551 7.70833V41.25C396.551 42.7778 396.099 44.0972 395.194 45.2083C394.289 46.3194 393.214 46.875 391.97 46.875H355.492V142.292C355.492 143.819 355.039 145.139 354.134 146.25C353.229 147.361 352.155 147.917 350.911 147.917H315.959C314.715 147.917 313.64 147.361 312.735 146.25C311.83 145.139 311.378 143.819 311.378 142.292V46.875H274.899C273.655 46.875 272.581 46.3194 271.676 45.2083C270.771 44.0972 270.318 42.7778 270.318 41.25V7.70833C270.318 6.18056 270.771 4.86111 271.676 3.75C272.581 2.63889 273.655 2.08333 274.899 2.08333H391.97Z" fill="#123E7D"/>
<path d="M493.874 105.208H524.584C525.829 105.208 526.903 105.764 527.808 106.875C528.713 107.986 529.165 109.306 529.165 110.833V142.292C529.165 143.819 528.713 145.139 527.808 146.25C526.903 147.361 525.829 147.917 524.584 147.917H417.015C415.771 147.917 414.696 147.361 413.791 146.25C412.886 145.139 412.434 143.819 412.434 142.292V110.833C412.434 109.306 412.886 107.986 413.791 106.875C414.696 105.764 415.771 105.208 417.015 105.208H448.064V44.7917H417.015C415.771 44.7917 414.696 44.2361 413.791 43.125C412.886 42.0139 412.434 40.6944 412.434 39.1667V7.70833C412.434 6.18056 412.886 4.86111 413.791 3.75C414.696 2.63889 415.771 2.08333 417.015 2.08333H524.584C525.829 2.08333 526.903 2.63889 527.808 3.75C528.713 4.86111 529.165 6.18056 529.165 7.70833V39.1667C529.165 40.6944 528.713 42.0139 527.808 43.125C526.903 44.2361 525.829 44.7917 524.584 44.7917H493.874V105.208Z" fill="#123E7D"/>
<path d="M592.555 91.6667C592.555 97.3611 594.082 101.736 597.136 104.792C600.303 107.847 604.545 109.375 609.861 109.375C614.612 109.375 618.118 108.403 620.38 106.458C622.643 104.514 624.566 101.597 626.149 97.7083C627.62 94.0972 629.599 92.2917 632.088 92.2917H668.736C669.754 92.2917 670.602 92.7778 671.281 93.75C672.073 94.5833 672.469 95.625 672.469 96.875C672.469 105.347 670.15 113.681 665.512 121.875C660.875 129.931 653.805 136.667 644.304 142.083C634.915 147.361 623.435 150 609.861 150C597.758 150 586.956 147.778 577.454 143.333C568.066 138.75 560.601 131.806 555.058 122.5C549.516 113.056 546.745 101.319 546.745 87.2917V62.7083C546.745 48.6806 549.516 37.0139 555.058 27.7083C560.601 18.2639 568.066 11.3194 577.454 6.875C586.956 2.29167 597.758 0 609.861 0C623.435 0 634.915 2.70834 644.304 8.12501C653.805 13.4028 660.875 20.1389 665.512 28.3333C670.15 36.3889 672.469 44.6528 672.469 53.125C672.469 54.375 672.073 55.4861 671.281 56.4583C670.602 57.2917 669.754 57.7083 668.736 57.7083H632.088C629.599 57.7083 627.62 55.9028 626.149 52.2917C624.566 48.4028 622.643 45.4861 620.38 43.5417C618.118 41.5972 614.612 40.625 609.861 40.625C604.545 40.625 600.303 42.1528 597.136 45.2083C594.082 48.2639 592.555 52.6389 592.555 58.3333V91.6667Z" fill="#123E7D"/>
<path d="M768.604 105.208H799.314C800.558 105.208 801.633 105.764 802.538 106.875C803.443 107.986 803.895 109.306 803.895 110.833V142.292C803.895 143.819 803.443 145.139 802.538 146.25C801.633 147.361 800.558 147.917 799.314 147.917H691.744C690.5 147.917 689.426 147.361 688.521 146.25C687.616 145.139 687.163 143.819 687.163 142.292V110.833C687.163 109.306 687.616 107.986 688.521 106.875C689.426 105.764 690.5 105.208 691.744 105.208H722.794V44.7917H691.744C690.5 44.7917 689.426 44.2361 688.521 43.125C687.616 42.0139 687.163 40.6944 687.163 39.1667V7.70833C687.163 6.18056 687.616 4.86111 688.521 3.75C689.426 2.63889 690.5 2.08333 691.744 2.08333H799.314C800.558 2.08333 801.633 2.63889 802.538 3.75C803.443 4.86111 803.895 6.18056 803.895 7.70833V39.1667C803.895 40.6944 803.443 42.0139 802.538 43.125C801.633 44.2361 800.558 44.7917 799.314 44.7917H768.604V105.208Z" fill="#123E7D"/>
<path d="M858.462 140.833C856.991 145.556 854.446 147.917 850.827 147.917H818.76C817.742 147.917 816.837 147.5 816.045 146.667C815.366 145.694 815.027 144.583 815.027 143.333L815.196 142.083L852.184 8.95833C852.637 7.15278 853.485 5.55556 854.729 4.16666C855.973 2.77778 857.67 2.08333 859.819 2.08333H906.987C909.136 2.08333 910.833 2.77778 912.077 4.16666C913.321 5.55556 914.169 7.15278 914.622 8.95833L951.61 142.083L951.779 143.333C951.779 144.583 951.383 145.694 950.592 146.667C949.913 147.5 949.065 147.917 948.047 147.917H915.979C912.36 147.917 909.815 145.556 908.344 140.833L904.103 126.25H862.704L858.462 140.833ZM883.403 42.2917L871.357 85.625H895.449L883.403 42.2917Z" fill="#123E7D"/>
<path d="M1029.59 55C1042.03 56.6667 1051.99 59.375 1059.45 63.125C1067.03 66.875 1072.52 71.8056 1075.91 77.9167C1079.3 84.0278 1081 91.6667 1081 100.833C1081 110.833 1078.34 119.583 1073.03 127.083C1067.82 134.444 1060.58 140.139 1051.31 144.167C1042.03 148.056 1031.46 150 1019.58 150C1006.35 150 995.148 147.986 985.986 143.958C976.824 139.931 969.981 134.583 965.456 127.917C960.932 121.111 958.669 113.681 958.669 105.625C958.669 104.236 959.009 103.125 959.687 102.292C960.479 101.458 961.441 101.042 962.572 101.042H997.354C999.729 101.042 1001.65 101.944 1003.12 103.75C1005.05 105.972 1007.19 107.5 1009.57 108.333C1011.95 109.028 1015.28 109.375 1019.58 109.375C1030.33 109.375 1035.7 107.361 1035.7 103.333C1035.7 101.667 1034.96 100.278 1033.49 99.1667C1032.14 97.9167 1029.65 96.875 1026.03 96.0417C1022.52 95.0694 1017.32 94.0972 1010.42 93.125C994.922 90.9028 983.045 86.1806 974.788 78.9583C966.531 71.5972 962.402 61.25 962.402 47.9167C962.402 38.4722 964.721 30.1389 969.358 22.9167C973.996 15.6944 980.557 10.0694 989.04 6.04166C997.636 2.01389 1007.59 0 1018.9 0C1030.67 0 1040.96 2.29167 1049.78 6.875C1058.6 11.3194 1065.33 16.875 1069.97 23.5417C1074.61 30.2083 1076.93 36.7361 1076.93 43.125C1076.93 44.5139 1076.53 45.625 1075.74 46.4583C1075.06 47.2917 1074.1 47.7083 1072.86 47.7083H1036.38C1034.45 47.7083 1032.7 46.875 1031.12 45.2083C1029.87 43.8194 1028.4 42.7083 1026.71 41.875C1025.01 41.0417 1022.41 40.625 1018.9 40.625C1011.32 40.625 1007.53 42.5694 1007.53 46.4583C1007.53 48.5417 1009 50.2083 1011.95 51.4583C1014.89 52.5694 1020.77 53.75 1029.59 55Z" fill="#123E7D"/>
</svg>
